HIERARCHY
ROOT Hips
{
	OFFSET 0.00000 0.00000 0.00000
	CHANNELS 6 Xposition Yposition Zposition Zrotation Yrotation Xrotation 
	JOINT LHipJoint
	{
		OFFSET 0 0 0
		CHANNELS 3 Zrotation Yrotation Xrotation
		JOINT LeftHip
		{
			OFFSET 1.76014 -1.80163 0.38499
			CHANNELS 3 Zrotation Yrotation Xrotation
			JOINT LeftKnee
			{
				OFFSET 2.46817 -6.78126 0.00000
				CHANNELS 3 Zrotation Yrotation Xrotation
				JOINT LeftAnkle
				{
					OFFSET 2.79348 -7.67503 0.00000
					CHANNELS 3 Zrotation Yrotation Xrotation
					JOINT LeftToe
					{
						OFFSET 0.09421 -0.25885 1.91403
						CHANNELS 3 Zrotation Yrotation Xrotation
						End Site
						{
							OFFSET 0.00000 -0.00000 0.97975
						}
					}
				}
			}
		}
	}
	JOINT RHipJoint
	{
		OFFSET 0 0 0
		CHANNELS 3 Zrotation Yrotation Xrotation
		JOINT RightHip
		{
			OFFSET -1.77926 -1.80163 0.38499
			CHANNELS 3 Zrotation Yrotation Xrotation
			JOINT RightKnee
			{
				OFFSET -2.51996 -6.92353 0.00000
				CHANNELS 3 Zrotation Yrotation Xrotation
				JOINT RightAnkle
				{
					OFFSET -2.76109 -7.58603 0.00000
					CHANNELS 3 Zrotation Yrotation Xrotation
					JOINT RightToe
					{
						OFFSET -0.08067 -0.22163 1.86812
						CHANNELS 3 Zrotation Yrotation Xrotation
						End Site
						{
							OFFSET -0.00000 -0.00000 0.95558
						}
					}
				}
			}
		}
	}
	JOINT lowerback
	{
		OFFSET 0 0 0
		CHANNELS 3 Zrotation Yrotation Xrotation
		JOINT Chest
		{
			OFFSET 0.05537 1.92033 -0.03713
			CHANNELS 3 Zrotation Yrotation Xrotation
			JOINT Chest2
			{
				OFFSET 0.04452 1.90073 0.10860
				CHANNELS 3 Zrotation Yrotation Xrotation
				JOINT lowerneck
				{
					OFFSET 0 0 0
					CHANNELS 3 Zrotation Yrotation Xrotation
					JOINT Neck
					{
						OFFSET 0.00903 1.74649 0.02074
						CHANNELS 3 Zrotation Yrotation Xrotation
						JOINT Head
						{
							OFFSET -0.08608 1.67844 -0.12081
							CHANNELS 3 Zrotation Yrotation Xrotation
							End Site
							{
								OFFSET -0.03521 1.83380 -0.05059
							}
						}
					}
				}
				JOINT LeftCollar
				{
					OFFSET 0 0 0
					CHANNELS 3 Zrotation Yrotation Xrotation
					JOINT LeftShoulder
					{
						OFFSET 3.28197 0.84325 -0.19106
CHANNELS 3 Zrotation Xrotation Yrotation
						JOINT LeftElbow
						{
OFFSET 0 -5.243180 -0.000000
CHANNELS 3 Zrotation Xrotation Yrotation
							JOINT LeftWrist
							{
OFFSET 0 -2.989990 0.000000
CHANNELS 3 Zrotation Xrotation Yrotation
								JOINT lhand
								{
									OFFSET 0 0 0
CHANNELS 3 Zrotation Xrotation Yrotation
									JOINT LFingers
									{
OFFSET 0 -0.726740 0.000000
CHANNELS 3 Zrotation Xrotation Yrotation
										End Site
										{
OFFSET 0 -0.585920 0.000000
										}
									}
								}
								JOINT LThumb
								{
OFFSET 0 0.000000 0.000000
CHANNELS 3 Zrotation Xrotation Yrotation
									End Site
									{
OFFSET 0 -0.594870 0.594870
									}
								}
							}
						}
					}
				}
				JOINT RightCollar
				{
					OFFSET 0 0 0
					CHANNELS 3 Zrotation Yrotation Xrotation
					JOINT RightShoulder
					{
						OFFSET -3.30963 0.78377 0.14264
CHANNELS 3 Zrotation Xrotation Yrotation
						JOINT RightElbow
						{
OFFSET 0 -5.370450 0.000000
CHANNELS 3 Zrotation Xrotation Yrotation
							JOINT RightWrist
							{
OFFSET 0 -2.927920 0.000000
CHANNELS 3 Zrotation Xrotation Yrotation
								JOINT rhand
								{
									OFFSET 0 0 0
CHANNELS 3 Zrotation Xrotation Yrotation
									JOINT RFingers
									{
OFFSET 0 -0.784500 0.000000
CHANNELS 3 Zrotation Xrotation Yrotation
										End Site
										{
OFFSET 0 -0.632480 0.000000
										}
									}
								}
								JOINT RThumb
								{
OFFSET 0 0.000000 0.000000
CHANNELS 3 Zrotation Xrotation Yrotation
									End Site
									{
OFFSET 0 -0.642140 0.642140
									}
								}
							}
						}
					}
				}
			}
		}
	}
}
MOTION
Frames: 7
Frame Time: 0.008333333333333333
0.094748 18.237619 1.284927 -2.563869 -4.687253 13.146379 0.000000 0.000000 0.000000 -14.716256 -24.121508 -3.750906 0.649771 5.156417 14.355180 -1.253799 22.016912 -19.675003 0.033548 -1.181913 -3.249402 0.000000 0.000000 0.000000 20.209203 20.202798 -6.624824 -0.262366 -3.295080 9.101388 0.641205 -15.040914 -11.447699 -0.301771 3.532201 -9.764086 1.959323 0.355871 -1.279957 2.702444 0.666394 -7.107054 1.694426 0.304026 -6.686755 5.397611 -1.113086 -2.898717 -10.129735 -0.530461 15.413231 -4.099310 -0.589277 5.009977 0.000000 0.000000 0.000000 24.987621 19.866426 -60.374416 30.794848 -41.564972 11.933490 -2.103855 -0.712185 -13.724619 0.000000 0.000000 0.000000 -7.125000 0.000000 0.000000 -26.145870 42.089150 -2.032180 0.000000 0.000000 0.000000 -48.214554 5.102406 -10.267514 -150.387999 -40.558509 -108.843521 -11.196601 -46.707763 12.847699 0.000000 0.000000 0.000000 7.125000 0.000000 0.000000 14.496259 42.599660 0.878615
0.121341 18.241485 1.312715 -2.749921 -4.971153 12.986679 0.000000 0.000000 0.000000 -14.873078 -24.152310 -3.397622 0.666337 5.220538 14.538637 -1.281551 22.382129 -20.241622 0.017845 -0.861777 -2.368556 0.000000 0.000000 0.000000 20.340605 20.358751 -6.354036 -0.265141 -3.312588 9.150297 0.643409 -15.056091 -11.435224 -0.288710 3.454932 -9.548119 2.357499 0.214683 -1.486797 3.027195 0.471644 -6.532438 1.812645 0.197728 -5.952267 5.838522 -0.389777 -2.998302 -9.896942 0.486123 16.953307 -4.084817 -0.074281 5.586952 0.000000 0.000000 0.000000 26.153815 20.281712 -63.078688 32.371808 -42.841358 12.993076 -1.441323 -0.584952 -13.775367 0.000000 0.000000 0.000000 -7.125000 0.000000 0.000000 -25.615168 42.202538 -1.906618 0.000000 0.000000 0.000000 -53.395354 4.358236 -8.763954 -148.972835 -41.757655 -107.912111 -11.505657 -47.267914 12.466790 0.000000 0.000000 0.000000 7.125000 0.000000 0.000000 14.123348 42.255581 0.977680
0.143602 18.246184 1.229225 -3.169395 -4.834680 12.838712 0.000000 0.000000 0.000000 -14.222507 -23.212421 -4.843082 0.793224 5.685022 15.873173 -1.175616 21.489804 -19.405303 0.063918 -1.628931 -4.481201 0.000000 0.000000 0.000000 20.591382 20.324299 -6.717685 -0.278653 -3.395348 9.381385 0.649022 -14.994307 -11.055197 -0.253572 3.240218 -8.948297 2.871423 -0.042741 -1.861326 3.523994 0.077727 -5.169105 2.034425 0.000149 -4.296163 6.696413 1.635059 -3.323094 -8.402257 3.366471 24.595730 -3.718710 1.419996 8.374847 0.000000 0.000000 0.000000 30.554553 19.208852 -69.202286 37.186972 -46.311865 16.375128 2.485697 -1.532954 -14.657510 0.000000 0.000000 0.000000 -7.125000 0.000000 0.000000 -22.633285 43.418804 -0.934966 0.000000 0.000000 0.000000 -56.889717 3.551189 -5.572169 -145.099547 -44.740355 -105.256573 0.538191 -37.044125 7.718215 0.000000 0.000000 0.000000 7.125000 0.000000 0.000000 22.844342 36.753080 4.963176
0.160389 18.230281 0.961458 -3.136139 -4.897142 12.377905 0.000000 0.000000 0.000000 -13.731673 -20.571481 -7.951463 1.039296 6.483806 18.194674 -0.836568 18.705667 -17.493786 0.187886 -2.791453 -7.698734 0.000000 0.000000 0.000000 20.342674 19.108376 -9.186327 -0.429475 -4.205651 11.655928 0.505906 -13.352905 -10.015140 -0.389650 4.007186 -11.097061 3.004132 -0.041360 -0.529678 3.520692 0.020748 -2.285475 1.933580 -0.011011 -2.051484 7.236803 3.392505 -2.279862 -7.103603 5.859185 31.041142 -3.280514 2.759514 10.732866 0.000000 0.000000 0.000000 31.406705 14.377634 -66.018737 36.669113 -45.967353 16.001894 5.469370 -0.052596 -15.112708 0.000000 0.000000 0.000000 -7.125000 0.000000 0.000000 -20.220478 44.169153 -0.433338 0.000000 0.000000 0.000000 -50.693283 3.446741 -1.428762 -136.873979 -49.814641 -99.202413 14.240756 -5.829824 -0.057754 0.000000 0.000000 0.000000 7.125000 0.000000 0.000000 30.631895 28.844266 13.973056
0.159255 18.211366 0.674038 -2.406888 -4.014613 13.949799 0.000000 0.000000 0.000000 -13.077427 -19.557313 -12.369825 1.113498 6.703838 18.840914 -0.642424 16.272349 -14.879688 0.326204 -3.669063 -10.147584 0.000000 0.000000 0.000000 18.673888 19.959349 -13.232459 -0.599850 -4.957755 13.788028 0.532639 -13.696844 -10.289120 -0.517405 4.610066 -12.799696 2.886058 -0.059599 1.373589 3.168143 0.030402 -0.929384 1.633581 -0.000510 -1.725175 7.451086 3.991128 -0.756835 -8.161431 7.172702 32.580210 -3.643473 3.307579 11.211178 0.000000 0.000000 0.000000 21.380171 8.387828 -41.328218 30.686572 -41.474365 11.861793 3.636477 13.302809 -14.730524 0.000000 0.000000 0.000000 -7.125000 0.000000 0.000000 -21.671444 43.610502 -0.782273 0.000000 0.000000 0.000000 -31.500022 5.722866 -0.105535 -124.294921 -55.049383 -89.206123 10.117664 13.542622 -4.298155 0.000000 0.000000 0.000000 7.125000 0.000000 0.000000 26.801579 25.285373 14.343312
0.143709 18.203088 0.493927 -1.824551 -1.972219 14.733677 0.000000 0.000000 0.000000 -12.672769 -19.893608 -14.815646 1.146408 6.798943 19.121014 -0.532749 14.587281 -12.882579 0.510383 -4.579373 -12.712639 0.000000 0.000000 0.000000 17.626356 20.719947 -15.009739 -0.693369 -5.323129 14.832453 0.594394 -14.881518 -12.216771 -0.141709 2.425449 -6.682997 3.140542 -0.240048 2.597955 3.692282 -0.169031 -0.049109 2.039223 -0.095843 -1.506422 7.132992 3.914286 -0.001333 -10.373875 7.733955 31.813805 -4.358617 3.350402 10.886379 0.000000 0.000000 0.000000 4.694070 4.898204 -17.965171 38.716733 -47.283777 17.492601 11.740494 7.461124 -21.496841 0.000000 0.000000 0.000000 -7.125000 0.000000 0.000000 -17.062195 51.095700 2.626625 0.000000 0.000000 0.000000 -9.009547 9.101993 -0.313190 -117.851433 -56.855417 -83.865386 -1.245864 10.398964 -6.137920 0.000000 0.000000 0.000000 7.125000 0.000000 0.000000 18.626771 23.843373 10.028208
0.186344 18.176938 0.343894 -1.915653 -1.387839 15.308285 0.000000 0.000000 0.000000 -12.149774 -19.733191 -17.341922 1.334046 7.313635 20.648002 -0.442588 13.465842 -12.112426 0.642301 -5.127143 -14.271598 0.000000 0.000000 0.000000 17.370444 19.063399 -18.015129 -0.875265 -5.964575 16.681725 0.462526 -13.228087 -10.960263 -0.288069 3.446467 -9.524744 4.141010 -0.852997 2.774070 4.699675 -0.968850 0.594268 2.548292 -0.492239 -0.932716 6.971686 3.340321 -1.080993 -11.979632 7.139032 30.066338 -4.912594 2.889615 10.397460 0.000000 0.000000 0.000000 9.643768 11.578295 -42.486885 70.574682 -58.516925 43.261775 17.936372 -12.869689 -28.489441 0.000000 0.000000 0.000000 -7.125000 0.000000 0.000000 -14.506908 59.091905 5.059043 0.000000 0.000000 0.000000 -3.987935 14.720633 20.980705 -126.322216 -54.375093 -90.861716 -11.837663 -11.652863 3.843588 0.000000 0.000000 0.000000 7.125000 0.000000 0.000000 12.069495 33.719472 3.405770
